# xmcd
#
# Track frame offsets: 
#        150
#        12500
#        25630
#        38232
#        50810
#        62890
#        76242
#        90362
#        101605
#        116365
#        128090
#        144550
#        157842
#        171560
#        183642
#        197812
#        208985
#        220662
#        233417
#        248172
#        262922
#
# Disc length: 4509 seconds
#
# Revision: 4
# Processed by: cddbd v1.5.1PL0 Copyright (c) Steve Scherf et al.
# Submitted via: ExactAudioCopy v0.95a4
#
DISCID=1f119b15
DTITLE=Chico O'farril - Cuban Blues-Sessions
DYEAR=1951
DGENRE=
TTITLE0=Avocadoes
TTITLE1=Taboo
TTITLE2=Jatp Mambo
TTITLE3=Duerme
TTITLE4=Almendra
TTITLE5=The Disappearance
TTITLE6=Cuban Blues
TTITLE7=Sin Titulo
TTITLE8=Dance One
TTITLE9=Bright One
TTITLE10=Flamingo
TTITLE11=Last One
TTITLE12=Tierra VA Tembla
TTITLE13=Vamos Pa La Rumba
TTITLE14=Mamba Korula
TTITLE15=Frizilandia
TTITLE16=Peanut Vendor
TTITLE17=Ill Wind - You're Blowin' Me No Good
TTITLE18=Malaguena
TTITLE19=Castigala
TTITLE20=The Second Afro-Cuban Jazz Suite
EXTD=
EXTT0=
EXTT1=
EXTT2=
EXTT3=
EXTT4=
EXTT5=
EXTT6=
EXTT7=
EXTT8=
EXTT9=
EXTT10=
EXTT11=
EXTT12=
EXTT13=
EXTT14=
EXTT15=
EXTT16=
EXTT17=
EXTT18=
EXTT19=
EXTT20=
PLAYORDER=
